<svg xmlns="http://www.w3.org/2000/svg" version="1.1" xmlns:xlink="http://www.w3.org/1999/xlink" xmlns:svgjs="http://svgjs.dev/svgjs" viewBox="0 0 600 600"><path d="M90.77847290039062,157.35394287109375C110.70823828379314,132.70396931966147,121.54722849527995,74.83771514892578,142.17628479003906,65.04765319824219C162.8053410847982,55.257591247558594,182.2106450398763,98.78839365641277,214.5528106689453,98.61357116699219C246.8949762980143,98.43874867757161,303.3626480102539,60.85191345214844,336.2292785644531,63.99871826171875C369.09590911865234,67.14552307128906,393.2214101155599,85.67670440673828,411.7525939941406,117.49440002441406C430.2837778727214,149.31209564208984,444.0947519938151,209.9755071004232,447.4163818359375,254.90489196777344C450.7380116780599,299.8342768351237,445.1437072753906,353.15514373779297,431.682373046875,387.0707092285156C418.2210388183594,420.9862747192383,407.38202412923175,442.8390808105469,366.64837646484375,458.3982849121094C325.91472880045575,473.9574890136719,231.1609344482422,485.6706085205078,187.28048706054688,480.4259338378906C143.40003967285156,475.18125915527344,131.1624698638916,452.10468037923175,103.36569213867188,426.93023681640625C75.56891441345215,401.75579325358075,33.961153984069824,365.0430628458659,20.499820709228516,329.3792724609375C7.038487434387207,293.7154820760091,10.884583791097006,241.6183827718099,22.597692489624023,212.94749450683594C34.31080118815104,184.27660624186197,70.84870751698811,182.00391642252603,90.77847290039062,157.35394287109375C110.70823828379314,132.70396931966147,121.54722849527995,74.83771514892578,142.17628479003906,65.04765319824219" fill="hsl(340, 45%, 50%)" transform="matrix(1.3400956406250004,0,0,1.3400956406250004,-78.27811992262957,-92.72860782240531)"></path></svg>